<?xml version="1.0" encoding="utf-8"?>
<!-- Generator: Adobe Illustrator 26.5.0, SVG Export Plug-In . SVG Version: 6.00 Build 0)  -->
<svg version="1.1" id="Layer_1" xmlns="http://www.w3.org/2000/svg" xmlns:xlink="http://www.w3.org/1999/xlink" x="0px" y="0px"
	 viewBox="0 0 139.9 97.1" style="enable-background:new 0 0 139.9 97.1;" xml:space="preserve">
<style type="text/css">
	.st0{fill:#FFFFFF;}
	.st1{fill:#F6B737;}
</style>
<g>
	<path class="st0" d="M3.9,75l4-9.9h1l4,9.9h-1.3l-1.2-3H6.4l-1.2,3H3.9z M8.5,66.6C8,67.8,7.6,69,7.2,70l-0.4,0.9h3.3L9.7,70
		C9.3,68.9,8.9,67.8,8.5,66.6L8.5,66.6z"/>
	<path class="st0" d="M16.3,65.1v8.8h4.8V75h-6v-9.9H16.3z"/>
	<path class="st0" d="M28.8,75h-0.6l-2.5-5.9c-0.3-0.8-0.7-1.7-1-2.7h-0.1c0.1,1.4,0.1,2.6,0.1,3.8V75h-1.2v-9.9h1.7l2.3,5.6
		c0.3,0.6,0.6,1.4,0.9,2.3h0c0.4-1,0.6-1.8,0.9-2.3l2.3-5.6h1.7V75h-1.2v-4.8c0-1.1,0-2.4,0.1-3.8h-0.1c-0.4,1-0.7,1.9-1,2.7
		L28.8,75z"/>
	<path class="st0" d="M35.6,75l4-9.9h1l4,9.9h-1.3l-1.2-3h-4.1l-1.2,3H35.6z M40.2,66.6c-0.4,1.2-0.9,2.3-1.3,3.4l-0.4,0.9h3.3
		L41.4,70C41,68.9,40.6,67.8,40.2,66.6L40.2,66.6z"/>
	<path class="st0" d="M52.2,66.7c-0.1,0.5-0.3,1.2-0.6,2.4L50.1,75h-1.2l-3-9.9h1.2l1.7,5.8c0.3,0.9,0.5,1.8,0.7,2.5h0
		c0.1-0.5,0.2-0.9,0.3-1.3s0.2-0.8,0.3-1.2l1.5-5.8h1.2l1.5,5.8c0.4,1.4,0.6,2.2,0.6,2.5h0c0.2-0.7,0.4-1.5,0.7-2.5l1.7-5.8h1.2
		l-3,9.9h-1.2l-1.5-5.9C52.5,68,52.3,67.2,52.2,66.7L52.2,66.7z"/>
	<path class="st0" d="M59.8,75l4-9.9h1l4,9.9h-1.3l-1.2-3h-4.1l-1.2,3H59.8z M64.3,66.6C63.9,67.8,63.4,69,63,70l-0.4,0.9h3.3
		L65.6,70C65.2,68.9,64.7,67.8,64.3,66.6L64.3,66.6z"/>
	<path class="st0" d="M72.2,70.9V75H71v-9.9h2.6c0.4,0,0.8,0,1.1,0c0.3,0,0.6,0.1,0.8,0.2c0.7,0.2,1.2,0.5,1.6,1
		c0.4,0.5,0.5,1,0.5,1.7c0,0.4-0.1,0.8-0.2,1.1c-0.1,0.3-0.3,0.6-0.5,0.8c-0.2,0.2-0.5,0.4-0.8,0.6s-0.7,0.3-1.1,0.3v0l2.9,4.2h-1.2
		l-3-4.1H72.2z M72.2,66.2v3.6h1.2c0.4,0,0.7,0,0.9,0c0.3,0,0.5-0.1,0.7-0.1c0.4-0.1,0.7-0.3,1-0.6c0.2-0.3,0.3-0.6,0.3-1.1
		c0-0.4-0.1-0.8-0.3-1s-0.5-0.4-0.9-0.6c-0.2-0.1-0.4-0.1-0.6-0.1s-0.6,0-0.9,0H72.2z"/>
	<path class="st0" d="M80.5,75v-9.9h1.2V75H80.5z"/>
	<path class="st0" d="M92.8,70c0,0.6-0.1,1.1-0.2,1.6c-0.1,0.5-0.4,1-0.6,1.4s-0.6,0.8-1.1,1.1c-0.4,0.3-0.9,0.5-1.5,0.7
		c-0.3,0.1-0.7,0.2-1.1,0.2c-0.4,0-0.8,0.1-1.2,0.1h-2.2v-9.9h2.3c0.4,0,0.9,0,1.2,0.1c0.4,0,0.7,0.1,1.1,0.2
		c0.6,0.2,1.1,0.4,1.5,0.7c0.4,0.3,0.8,0.6,1.1,1c0.3,0.4,0.5,0.8,0.6,1.3S92.8,69.4,92.8,70z M91.6,70c0-1-0.2-1.7-0.6-2.3
		c-0.4-0.6-1-1-1.8-1.3c-0.3-0.1-0.6-0.2-1-0.2s-0.8-0.1-1.3-0.1H86v7.7h0.9c0.5,0,0.9,0,1.3-0.1s0.7-0.1,1-0.2
		c0.8-0.2,1.4-0.7,1.8-1.3C91.4,71.7,91.6,70.9,91.6,70z"/>
	<path class="st0" d="M102.1,75h-1.2v-8.8h-3.3v-1.1h7.8v1.1h-3.3V75z"/>
	<path class="st0" d="M108.8,73.9h5.1V75h-6.3v-9.9h6v1.1h-4.8v3.2h4.3v1.1h-4.3V73.9z"/>
	<path class="st0" d="M121.3,66c-0.6,0-1.1,0.1-1.6,0.3s-0.9,0.4-1.3,0.8c-0.4,0.3-0.6,0.8-0.8,1.3c-0.2,0.5-0.3,1.1-0.3,1.8
		c0,0.7,0.1,1.3,0.3,1.8s0.5,0.9,0.8,1.2c0.3,0.3,0.8,0.6,1.3,0.7s1,0.2,1.6,0.2c0.2,0,0.3,0,0.5,0c0.2,0,0.4,0,0.6-0.1
		c0.2,0,0.4-0.1,0.5-0.1c0.2,0,0.3-0.1,0.5-0.1v1.1c-0.3,0.1-0.6,0.2-1,0.3c-0.4,0.1-0.8,0.1-1.2,0.1c-0.8,0-1.6-0.1-2.2-0.3
		c-0.6-0.2-1.2-0.6-1.6-1c-0.4-0.4-0.8-1-1-1.6c-0.2-0.6-0.3-1.3-0.3-2.1c0-0.8,0.1-1.5,0.4-2.1c0.2-0.6,0.6-1.2,1-1.7
		c0.4-0.5,1-0.8,1.6-1.1s1.3-0.4,2.1-0.4c0.2,0,0.4,0,0.6,0s0.4,0,0.6,0.1s0.4,0.1,0.5,0.1s0.3,0.1,0.4,0.1v1.1
		c-0.3-0.1-0.6-0.2-1-0.2C122,66,121.6,66,121.3,66z"/>
	<path class="st0" d="M127.2,69.4h5.2v-4.3h1.2V75h-1.2v-4.5h-5.2V75H126v-9.9h1.2V69.4z"/>
</g>
<path class="st0" d="M67.1,26.9l-3.4,7.8l7.9,0h0.7l-0.4,0.8l0,0c-2.8,6.4-7.7,11.6-14,14.7L54,52.2c-4,2-8.4,3-12.9,3h0l20.8-40
	l1.3-2.6l0.2-0.3c1.6-3,5.9-3,7.4,0l0,0l2.9,5.6l3.1,6.3l1.3,2.7l-2.5,0l-7.5,0L67.1,26.9z"/>
<path class="st1" d="M98.4,26.9c1.4,0,2.3,1.4,1.8,2.7l-2.2,5h0c0,0.1-0.1,0.1-0.1,0.2l0,0l-0.7,1.6l-0.8,1.8
	c-1.2,2.6-3.8,4.3-6.6,4.3h0c-1.4,0-2.4,1.5-1.7,2.8l3.6,7c0.7,1.3-0.3,2.8-1.7,2.8h-5.6c-1.2,0-2.4-0.5-3.4-1.2
	c-0.9-0.6-1.6-1.5-2-2.5l-2.8-6.3v0l0.5-1.2l0.6-1.5l2.9-6.6c0.3-0.7,1-1.2,1.8-1.2l0,0h0.5l6.9,0l0,0l0.9-2v0l2.6-5.9l0-0.1H98.4z"
	/>
<g>
	<polygon class="st1" points="75.3,47.3 71.8,55.1 63.3,55.2 66.7,47.3 	"/>
</g>
</svg>
