<?xml version="1.0" encoding="utf-8"?>
<!-- Generator: Adobe Illustrator 26.5.0, SVG Export Plug-In . SVG Version: 6.00 Build 0)  -->
<svg version="1.1" id="Layer_1" xmlns="http://www.w3.org/2000/svg" xmlns:xlink="http://www.w3.org/1999/xlink" x="0px" y="0px"
	 viewBox="0 0 76.7 59.4" style="enable-background:new 0 0 76.7 59.4;" xml:space="preserve">
<style type="text/css">
	.st0{opacity:0.3;fill:#FFFFFF;}
	.st1{opacity:0.3;}
	.st2{fill:#FFFFFF;}
</style>
<path class="st0" d="M34.4,23.3L30.6,32h8.7h0.8l-0.4,0.9l0,0c-3.1,7.1-8.6,12.9-15.5,16.3l-4.3,2.2c-4.4,2.2-9.3,3.4-14.3,3.4l0,0
	l23-44.4l1.5-2.9l0.2-0.3c1.7-3.3,6.5-3.3,8.2,0l0,0l3.2,6.2l3.4,7l1.5,3h-2.8h-8.4L34.4,23.3z"/>
<path class="st0" d="M69.2,23.3c1.5,0,2.6,1.6,2,3l-2.4,5.6l0,0c0,0.1-0.1,0.2-0.1,0.2l0,0l-0.8,1.8L67,36c-1.3,2.9-4.2,4.8-7.3,4.8
	l0,0c-1.6,0-2.6,1.7-1.9,3.1l4,7.8c0.7,1.4-0.3,3.1-1.9,3.1h-6.3c-1.4,0-2.7-0.5-3.7-1.3c-1-0.7-1.7-1.6-2.2-2.8l-3.1-7l0,0l0.6-1.4
	l0.7-1.6l3.2-7.4c0.3-0.8,1.1-1.3,2-1.3l0,0h0.5h7.6l0,0l1-2.2v0.1l2.9-6.5v-0.1C63.1,23.3,69.2,23.3,69.2,23.3z"/>
<g class="st1">
	<polygon class="st2" points="43.5,45.9 39.7,54.6 30.2,54.7 34,46 	"/>
</g>
</svg>
